<svg width="1328" height="924" viewBox="0 0 1328 924" fill="none" xmlns="http://www.w3.org/2000/svg">
<path d="M1195.09 505.499C1196.05 503.14 1198.19 501.727 1200.48 501.495C1201.65 496.552 1203.43 491.896 1205.88 487.472C1205.38 487.619 1204.86 487.718 1204.26 487.787C1203.75 487.848 1203.35 487.464 1203.47 486.935C1205.49 478.527 1212.89 472.5 1221.42 472.053C1220.35 470.885 1219.2 469.847 1217.89 468.86C1217.48 468.551 1217.5 467.776 1218.1 467.679C1222.79 466.938 1227.35 468.259 1230.55 471.686C1231.02 468.53 1232.67 465.917 1235.39 463.912C1235.81 463.605 1236.45 463.714 1236.57 464.278C1236.89 465.688 1237.02 466.953 1236.98 468.298C1245.96 462.61 1256.62 465.909 1265.99 469.352C1266.43 469.513 1266.7 470.062 1266.4 470.484L1265.18 472.229C1280.04 474.765 1292.38 485.929 1296.23 500.57C1296.4 501.172 1295.61 501.788 1295.09 501.382C1294.45 500.889 1293.82 500.387 1293.18 499.894C1296.43 511.697 1293.99 524.439 1286.53 534.222C1287.17 535.762 1287.21 537.604 1286.46 539.258C1285.23 541.975 1282.22 543.712 1279.43 543.332C1277.64 549.268 1272.17 553.719 1266.44 555.592C1266.23 555.661 1266.06 555.601 1265.95 555.486C1263.62 557.212 1261.09 558.653 1258.53 559.747C1249.06 563.796 1238.33 563.449 1228.59 560.52C1218.75 557.56 1209.33 552.507 1204.29 543.22C1203.92 542.538 1203.57 541.847 1203.25 541.147C1195.97 534.008 1195.39 522.993 1197.04 513.362C1197.07 513.213 1197.13 513.121 1197.21 513.039C1194.98 511.384 1193.93 508.376 1195.09 505.499ZM1291.04 498.026C1290.83 497.423 1291.67 496.837 1292.17 497.223C1292.81 497.716 1293.45 498.218 1294.08 498.711C1289.66 485.449 1277.8 475.446 1263.84 473.55C1263.31 473.48 1262.87 472.899 1263.23 472.385C1263.67 471.742 1264.12 471.099 1264.57 470.456C1255.58 467.191 1245.09 464.008 1236.64 470.234C1236.2 470.559 1235.38 470.36 1235.45 469.689C1235.59 468.338 1235.57 467.056 1235.37 465.752C1233.26 467.596 1231.93 469.927 1231.38 472.689C1231.5 472.907 1231.44 473.13 1231.29 473.266C1231.25 473.452 1231.22 473.638 1231.2 473.824C1231.14 474.328 1230.4 474.318 1230.39 473.795C1230.39 473.524 1230.4 473.253 1230.41 472.991C1227.45 470.112 1223.91 468.574 1219.87 468.789C1221.1 469.83 1222.22 470.961 1223.28 472.231C1223.64 472.651 1223.36 473.327 1222.79 473.312C1214.56 473.131 1207.31 478.546 1205.01 486.347C1205.76 486.189 1206.48 485.899 1207.14 485.448C1207.75 485.109 1208.37 485.853 1208.03 486.415C1205.21 491.166 1203.17 496.152 1201.87 501.493C1202.9 501.603 1203.93 501.966 1204.86 502.597C1206.04 497.898 1209.17 494.669 1213.77 492.888C1220.56 490.256 1226.5 488.856 1229.47 481.323C1229.68 480.796 1230.53 480.574 1230.8 481.198C1237.76 497.74 1256.45 491.933 1269.61 498.511C1281.45 504.428 1284.5 519.002 1281.64 530.939C1283.36 530.908 1284.75 531.682 1285.68 532.836C1293.07 522.808 1295.09 509.859 1291.04 498.026ZM1278.71 543.202C1277.9 542.985 1277.13 542.582 1276.43 541.948C1276.4 541.919 1276.38 541.881 1276.36 541.843C1274.88 546.413 1271.92 550.422 1268.25 553.647C1272.94 551.439 1276.12 547.762 1278.71 543.202ZM1198.38 513.779C1196.86 522.395 1197.36 530.969 1202.01 538.134C1199.28 530.559 1198.99 522.206 1200.54 514.32C1200.53 514.319 1200.52 514.329 1200.51 514.319C1199.74 514.243 1199.03 514.038 1198.37 513.732C1198.37 513.76 1198.38 513.769 1198.38 513.779ZM1200.66 513.397C1200.69 513.407 1200.7 513.417 1200.72 513.427C1200.75 513.315 1200.77 513.194 1200.8 513.083C1201.01 512.154 1202.42 512.601 1202.21 513.521C1200.07 523.187 1200.85 533.721 1205.63 542.525C1210.49 551.452 1219.6 556.245 1229.03 559.101C1248.07 564.883 1268.04 558.707 1276.27 539.831C1276.43 539.462 1276.96 539.615 1276.87 540.015C1276.75 540.507 1276.62 540.98 1276.47 541.463C1276.58 541.372 1276.74 541.339 1276.88 541.417C1279.58 543.028 1283.29 542.262 1284.95 539.5C1285.87 537.981 1285.98 536.218 1285.43 534.783C1285.06 534.652 1284.8 534.29 1284.98 533.902C1284.21 532.761 1282.91 531.999 1281.16 532.067C1280.61 532.091 1280.52 531.481 1280.82 531.152C1280.75 531.075 1280.7 530.962 1280.73 530.832C1281.84 523.308 1281.92 515.497 1278.13 508.653C1274.03 501.23 1266.97 498.098 1258.9 496.846C1247.67 495.094 1235.81 494.335 1230.2 483.276C1228.31 487.2 1225.28 490.189 1221.13 491.906C1214.49 494.654 1207.76 495.446 1206.1 503.843C1205.97 504.522 1205.19 504.465 1204.84 504.026C1204.75 504.015 1204.66 503.984 1204.56 503.916C1203.59 503.266 1202.5 502.901 1201.4 502.846C1201.2 502.981 1200.94 502.965 1200.72 502.847C1198.79 502.966 1197.01 504.061 1196.22 506.21C1194.98 509.599 1197.41 512.661 1200.66 513.397Z" fill="#BAD266" fill-opacity="0.8"/>
<path d="M1278.64 535.975C1280.02 535.235 1282.03 535.463 1283.21 536.531C1283.25 535.99 1283.12 535.398 1282.79 534.772C1282.54 534.28 1283.18 533.866 1283.56 534.231C1284.58 535.191 1284.58 536.79 1283.99 537.98C1283.27 539.43 1281.77 540.204 1280.21 540.371C1279.74 540.424 1279.57 539.784 1280.04 539.647C1281.43 539.243 1282.6 538.422 1283.04 537.302C1281.7 536.389 1280.48 536.181 1278.93 536.758C1278.49 536.906 1278.24 536.19 1278.64 535.975Z" fill="#BAD266" fill-opacity="0.8"/>
<path d="M1198.03 505.797C1198.27 505.776 1198.52 505.819 1198.77 505.872C1199.53 504.854 1200.84 504.271 1202.33 504.57C1202.77 504.656 1202.65 505.419 1202.2 505.361C1201.15 505.222 1200.27 505.602 1199.73 506.261C1200.62 506.798 1201.36 507.704 1201.57 508.588C1201.67 509.002 1201.09 509.193 1200.89 508.842C1200.54 508.244 1200.21 507.703 1199.63 507.287C1199.51 507.209 1199.4 507.141 1199.28 507.082C1199.1 507.647 1199.11 508.292 1199.35 508.962C1199.58 509.566 1198.51 509.969 1198.29 509.356C1197.93 508.431 1197.97 507.516 1198.27 506.729C1198.14 506.688 1198.01 506.657 1197.87 506.616C1197.4 506.483 1197.57 505.833 1198.03 505.797Z" fill="#BAD266" fill-opacity="0.8"/>
<path d="M1235.67 525.043C1237.76 522.694 1242.58 523.77 1242.42 527.308C1242.4 527.784 1241.74 527.824 1241.61 527.391C1240.93 525.093 1238.15 523.751 1236.52 526.093C1234.97 528.316 1236.9 530.533 1239.2 530.741C1240.14 530.83 1240.07 532.109 1239.16 532.179C1235.42 532.439 1233.23 527.795 1235.67 525.043Z" fill="#BAD266" fill-opacity="0.8"/>
<path d="M1219.83 536.38C1217.59 551.259 1238.09 557.377 1246.96 546.77C1247.26 546.395 1248.04 546.62 1247.81 547.175C1245.15 553.631 1234.29 554.73 1228.54 552.77C1221.72 550.448 1217.23 543.502 1218.31 536.342C1218.46 535.373 1219.98 535.412 1219.83 536.38Z" fill="#BAD266" fill-opacity="0.8"/>
<path d="M1269.84 533.958C1269.49 534.491 1268.54 534.102 1268.79 533.464C1271.89 525.346 1257.73 521.668 1255.3 529.85C1255.03 530.768 1253.63 530.331 1253.87 529.412C1256.82 518.411 1275.42 525.557 1269.84 533.958Z" fill="#BAD266" fill-opacity="0.8"/>
<path d="M1221.63 509.49C1223.86 510.603 1225.51 512.589 1226.34 514.928C1226.79 516.163 1227.67 518.737 1225.96 519.301C1225.69 519.388 1225.38 519.062 1225.5 518.794C1226.82 515.734 1222.66 511.385 1220.19 510.51C1216.15 509.071 1212.46 511.519 1211.72 515.556C1211.57 516.356 1210.23 516.126 1210.3 515.315C1210.84 509.796 1216.82 507.097 1221.63 509.49Z" fill="#BAD266" fill-opacity="0.8"/>
<path d="M35.3187 441.112C40.4671 439.409 37.0681 432.585 36.9363 429.011C36.8636 427.054 37.1213 425.1 38.0879 423.371C39.6656 420.549 42.4563 419.177 45.5453 419.223C42.8805 417.059 40.9806 413.909 39.9885 410.667C37.2533 410.026 34.6352 407.663 33.5824 405.373C32.1959 402.339 32.9652 398.455 35.6151 396.779C35.5636 396.718 35.5202 396.662 35.4823 396.576C31.7121 387.103 29.7249 375.437 34.9758 366.085C36.9037 362.656 40.1587 359.38 44.2249 358.828C46.8559 358.469 46.1941 358.216 47.0614 355.65C47.8409 353.357 49.0782 351.201 50.6161 349.331C57.6245 340.779 69.4661 338.612 79.9566 338.344C90.9709 338.058 102.25 340.457 111.215 347.129C121.79 355.001 125.889 367.388 126.52 380.179C128.935 381.315 130.771 383.584 130.936 386.427C131.106 389.359 129.378 392.278 126.792 393.476C126.937 395.227 126.793 396.977 126.417 398.683C126.444 398.655 126.47 398.627 126.517 398.6C130.513 396.317 135.018 398.023 137.618 401.606C141.833 407.431 139.242 415.338 145.25 420.196C145.693 420.552 145.568 421.466 144.901 421.49C137.756 421.69 125.613 418.615 123.01 410.769C121.664 414.823 119.612 418.589 116.96 421.474C110.181 428.87 98.3118 432.542 88.7088 434.152C79.0213 435.779 67.6624 436.011 58.9728 430.799C57.0557 429.652 55.3116 428.291 53.7121 426.787C57.2407 437.323 45.161 444.282 35.5218 442.51C34.8451 442.4 34.5921 441.359 35.3187 441.112ZM51.7827 424.819C51.2896 424.265 50.8174 423.712 50.3635 423.127C50.083 423.494 49.8187 423.871 49.6025 424.296C49.285 424.922 48.9409 425.307 49.4731 425.83C50.2017 426.537 51.09 425.599 51.7827 424.819ZM49.4014 421.861C49.2522 421.649 49.0985 421.445 48.9493 421.233C48.9412 421.229 48.9239 421.241 48.9157 421.236C48.3981 421.032 47.9033 420.788 47.4221 420.519C47.3972 420.697 47.3095 420.873 47.1078 420.985C46.786 421.159 45.9737 421.539 45.8174 421.934C45.165 423.56 47.1915 422.884 47.584 422.718C48.2255 422.413 48.7682 422.074 49.4014 421.861ZM48.1359 420.008C46.213 416.995 44.6783 413.729 43.5332 410.359C42.7971 410.718 42.0254 410.854 41.2359 410.83C42.5421 414.696 44.9928 417.512 48.1359 420.008ZM116.469 354.178C110.789 347.298 102.548 342.968 93.9219 341.089C78.4791 337.732 50.346 339.61 47.7081 359.759C47.6516 360.166 47.2569 360.47 46.8542 360.405C38.5175 359.233 34.3716 369.022 33.5546 375.748C32.708 382.661 34.3452 389.593 36.886 395.98C36.9121 396.048 36.9174 396.115 36.9227 396.183C37.2151 396.1 37.5157 396.022 37.8352 395.986C37.8414 395.401 38.8087 395.107 39.159 395.763C40.1773 397.713 41.3466 399.566 42.624 401.34C42.0669 398.641 42.1117 395.862 43.022 393.181C43.0467 393.098 43.095 393.05 43.1595 393.012C43.1303 392.738 43.2772 392.457 43.6186 392.401C44.7561 392.224 45.9234 392.127 47.0852 392.059C46.0977 388.81 46.1549 385.491 47.1411 382.253C47.2895 381.758 48.1389 381.751 48.2873 382.252C49.0565 384.705 49.9535 387.198 50.5102 389.725C50.5829 389.69 50.6637 389.661 50.7726 389.657C61.5118 389.079 72.1997 387.979 82.8115 386.173C93.2381 384.392 103.34 381.584 113.623 379.198C113.584 379.133 113.542 379.056 113.529 378.964C112.874 375.503 112.214 372.03 111.558 368.57C111.444 367.971 112.35 367.557 112.693 368.091C116.314 373.83 118.642 380.024 119.7 386.632C120.298 382.844 120.214 379.051 119.451 375.188C119.312 374.479 120.312 374.299 120.604 374.869C121.38 376.352 121.96 377.822 122.376 379.414C122.414 379.403 122.444 379.388 122.491 379.382C123.455 379.322 124.403 379.445 125.316 379.709C123.557 370.601 122.657 361.663 116.469 354.178ZM126.139 393.743C125.532 393.949 124.891 394.062 124.225 394.065C124.692 396.198 124.87 398.482 124.805 400.801C125.58 398.515 125.988 396.196 126.139 393.743ZM126.171 399.927C126.151 399.926 126.139 399.909 126.118 399.908C125.909 400.626 125.671 401.339 125.38 402.032C126.718 402.223 129.598 402.528 129.831 401.481C130.13 400.16 126.992 400.086 126.171 399.927ZM124.905 403.072C124.833 403.182 124.75 403.254 124.64 403.278C124.555 404.14 124.427 405 124.279 405.859C124.698 406.275 125.188 406.624 125.764 406.839C126.364 407.068 127.949 407.526 127.853 406.53C127.786 405.807 127.055 404.874 126.63 404.315C126.314 403.903 125.955 403.531 125.586 403.175C125.324 403.146 125.087 403.11 124.905 403.072ZM142.943 420.052C140.682 417.664 139.69 414.861 139.206 411.401C138.367 405.397 135.295 396.475 127.48 399.117C129.163 399.191 131.314 399.805 131.245 401.554C131.18 403.145 129.021 403.426 127.143 403.339C127.599 403.787 128.003 404.291 128.33 404.816C128.825 405.596 129.634 406.926 128.92 407.801C128.245 408.644 126.646 408.402 125.75 408.148C125.101 407.967 124.513 407.66 123.996 407.264C123.96 407.404 123.925 407.545 123.893 407.677C123.919 407.745 123.946 407.813 123.953 407.914C124.307 416.183 135.559 419.723 142.943 420.052ZM58.7711 428.92C66.9465 434.304 77.774 434.257 87.1278 432.882C96.3172 431.533 106.84 428.297 114.105 422.254C122.496 415.288 123.535 403.837 123.136 393.755C123.116 393.177 123.793 393.02 124.054 393.433C126.812 392.31 129.438 390.16 129.404 386.909C129.378 383.318 126.143 380.718 122.67 380.842C122.23 380.863 121.952 380.537 121.884 380.199C121.819 380.162 121.763 380.11 121.725 380.024C121.548 379.593 121.367 379.171 121.173 378.752C121.529 382.634 121.184 386.466 120.136 390.333C119.97 390.936 118.993 391.075 118.927 390.331C118.353 383.834 116.515 377.721 113.494 372.039C113.917 374.288 114.344 376.529 114.776 378.783C114.813 378.964 114.765 379.108 114.688 379.226C114.885 379.486 114.872 379.95 114.498 380.083C94.545 387.339 72.0694 390.165 50.9637 391.134C50.8884 391.135 50.8222 391.12 50.756 391.104C50.6998 391.415 50.2195 391.489 50.067 391.168C49.1259 389.176 48.4557 387.024 47.8054 384.894C47.4561 387.204 47.6422 389.513 48.2711 391.834C48.3204 392.033 48.2501 392.197 48.1318 392.313C48.1893 392.516 48.0988 392.755 47.8155 392.821C46.4889 393.107 45.1169 393.378 43.7634 393.521C43.7171 393.527 43.6927 393.513 43.6509 393.511C43.2576 397.316 43.4783 400.865 44.9868 404.427C45.2925 405.144 44.3264 405.685 43.8343 405.11C41.7836 402.69 40.021 400.099 38.4886 397.326C33.8188 397.905 33.3946 403.373 36.0024 406.501C38.043 408.959 40.4504 409.363 43.3328 409.626C43.3059 408.851 44.4805 408.415 44.7549 409.265C47.3155 417.034 51.8294 424.353 58.7711 428.92ZM51.8184 426.038C51.0009 426.984 49.754 427.624 48.6584 427.076C47.3334 426.421 47.8932 424.807 48.6564 423.5C47.356 424.121 45.9739 424.794 44.8465 423.574C43.6277 422.251 44.981 420.845 46.1945 420.111C42.4695 420.34 39.2034 422.678 38.5267 426.549C38.004 429.533 39.1027 432.277 39.4832 435.177C39.7925 437.533 39.4605 439.831 37.9119 441.299C46.4043 441.637 56.0614 435.508 51.8184 426.038Z" fill="#F18E85" fill-opacity="0.8"/>
<path d="M123.078 385.127C124.077 385.236 125.025 385.723 125.764 386.393C125.812 386.441 125.839 386.489 125.857 386.552C126.158 385.554 125.749 384.447 124.624 383.722C124.315 383.528 124.616 383.086 124.929 383.196C127.555 384.108 127.632 388.144 124.931 389.032C124.315 389.233 124.009 388.441 124.546 388.131C125.1 387.81 125.488 387.384 125.719 386.914C125.624 386.968 125.515 386.971 125.402 386.887C124.689 386.306 123.891 386.01 122.986 385.867C122.517 385.787 122.612 385.08 123.078 385.127Z" fill="#F18E85" fill-opacity="0.8"/>
<path d="M35.4795 403.244C35.8677 402.99 36.2983 402.813 36.7551 402.704C36.8257 401.449 37.2801 400.215 38.1158 399.237C38.4299 398.867 38.9751 399.289 38.7181 399.691C38.1457 400.581 37.8336 401.541 37.8108 402.577C38.9789 402.556 40.1748 402.925 40.9977 403.674C41.2666 403.921 41.0273 404.483 40.6476 404.281C39.668 403.755 38.7865 403.551 37.867 403.626C37.9125 403.908 37.9789 404.191 38.0707 404.468C38.1445 404.68 39.1079 406.461 39.3112 406.135C39.6184 405.643 40.4632 406.009 40.3536 406.568C40.2175 407.252 39.7057 407.555 39.0065 407.389C38.0878 407.175 37.5648 406.272 37.2131 405.465C36.9904 404.945 36.8403 404.39 36.7738 403.839C36.5149 403.919 36.2596 404.012 35.9871 404.116C35.4747 404.343 34.9876 403.568 35.4795 403.244Z" fill="#F18E85" fill-opacity="0.8"/>
<path d="M81.5511 404.03C82.385 404.09 83.1751 404.189 84.0078 404.001C84.4137 403.907 84.9223 403.764 85.2407 403.481C85.7602 403.012 85.4233 402.427 85.0288 402.003C83.933 400.823 82.4781 400.898 81.0141 400.989C80.582 401.016 80.3058 400.476 80.6786 400.192C82.6139 398.683 86.116 400.021 86.8475 402.292C87.8131 405.294 83.0814 405.946 81.191 405.306C80.4585 405.046 80.8344 403.972 81.5511 404.03Z" fill="#F18E85" fill-opacity="0.8"/>
<path d="M97.2498 395.156C97.8068 391.25 100.848 387.994 104.879 387.657C107.092 387.471 113.409 389.173 112.126 392.405C112.002 392.722 111.503 392.657 111.469 392.316C111.093 389.312 105.674 388.723 103.595 389.359C100.829 390.21 99.1064 392.544 98.6423 395.346C98.4801 396.229 97.1248 396.05 97.2498 395.156Z" fill="#F18E85" fill-opacity="0.8"/>
<path d="M54.1417 404.098C54.9998 396.934 65.0817 393.473 68.7111 400.651C68.9223 401.058 68.3372 401.32 68.0621 401.027C63.8834 396.592 56.3844 397.387 55.5632 404.293C55.4582 405.208 54.0367 405.013 54.1417 404.098Z" fill="#F18E85" fill-opacity="0.8"/>
<path d="M78.9236 418.436C79.0444 417.722 79.9744 417.782 80.1324 418.437C81.0531 422.228 82.6545 426.677 87.5759 425.993C89.8283 425.679 91.5369 424.097 91.9469 421.832C92.2721 420.044 91.5663 418.301 91.9069 416.543C91.9401 416.369 92.1562 416.308 92.2711 416.447C95.5808 420.406 92.5524 426.741 87.7725 427.441C82.9463 428.146 78.1089 423.301 78.9236 418.436Z" fill="#F18E85" fill-opacity="0.8"/>
<path d="M1271.15 69.5078C1271.07 63.4877 1265.59 59.8703 1260.14 61.2832C1260.55 57.6785 1259.18 54.1904 1256.53 52.2708C1259.23 34.289 1245.42 19.1914 1228.13 16.4249C1212.54 13.9229 1193.33 22.9684 1192.35 40.4264C1191.96 40.36 1191.56 40.3052 1191.16 40.2769C1184.91 39.9693 1178.8 44.8742 1179.63 51.1758C1175.3 47.43 1168.08 46.9679 1164.99 52.7241C1161.48 59.2899 1168.52 64.1133 1174.46 63.9047C1172.23 67.8129 1175.24 73.2302 1179 75.1321C1182.86 77.0792 1189.19 76.8304 1192.21 73.409C1193.95 78.6658 1200.67 81.2442 1205.76 78.8317C1210.44 76.612 1211.88 70.0616 1207.98 67.0142C1210.16 66.7773 1212.33 66.2053 1213.79 64.4797C1215.74 62.2144 1215.53 58.9406 1214.31 56.3769C1213.47 54.6071 1212.03 53.0463 1210.34 51.9591C1214.58 40.1568 1234.42 44.9121 1232.69 57.4352L1232.69 57.4466C1232.31 57.7648 1231.94 58.1249 1231.61 58.5494C1229 61.9037 1231 66.1804 1234.1 68.4098C1232.95 69.0369 1232.02 70.2379 1231.51 71.3261C1230.38 73.6934 1230.58 76.4341 1232.13 78.5732C1235.03 82.6011 1241.11 82.6507 1244.05 78.788C1244.83 82.5118 1249.69 85.0663 1253.18 84.8373C1256.58 84.6202 1259.73 81.7883 1259 78.6088C1264.99 80.2393 1271.24 75.9239 1271.15 69.5078ZM1227.11 18.487C1243.37 20.7757 1256.12 34.5388 1254.3 51.1371C1253.33 50.8188 1252.24 50.6764 1251.06 50.7363C1250.34 50.7785 1249.53 50.8935 1248.68 51.0849C1247.47 37.8662 1238.54 26.077 1224.78 24.3874C1212.82 22.9199 1199.62 31.2347 1198.55 43.6056C1197.16 42.2882 1195.42 41.2774 1193.61 40.7354C1197.68 25.1908 1211.08 16.2198 1227.11 18.487ZM1241.79 57.2165C1241.57 57.0959 1241.35 56.9866 1241.14 56.8774C1242.27 46.0599 1236.58 36.4955 1225.43 34.597C1215.48 32.9012 1203.5 39.0423 1204.72 50.3379C1203.52 50.4132 1202.35 50.7663 1201.31 51.5033C1201.9 49.238 1201.25 47.0367 1199.92 45.1821C1202.69 33.8603 1211.18 25.2597 1223.78 26.4684C1236.8 27.7128 1245.48 38.8636 1246.41 51.3946C1246.42 51.524 1246.47 51.6266 1246.51 51.7292C1243.87 52.7684 1241.56 54.5712 1241.79 57.2165ZM1212.55 56.7372C1213.79 59.2473 1214.01 62.2964 1211.45 64.0549C1209.78 65.2067 1207.47 65.2387 1205.53 65.2991C1204.34 65.3286 1204.24 67.1952 1205.44 67.158C1205.53 67.1613 1205.61 67.1494 1205.7 67.1527C1211.2 69.8408 1207.87 76.7331 1202.97 77.6632C1198.44 78.5149 1194.56 75.395 1193.63 71.1124C1193.59 70.9603 1193.52 70.835 1193.43 70.7289C1193.39 70.6796 1193.34 70.638 1193.28 70.5926C1193.26 70.5737 1193.23 70.551 1193.21 70.5435C1192.64 70.2192 1191.75 70.4603 1191.8 71.2483C1191.81 71.3397 1191.83 71.4348 1191.84 71.5261C1189.22 74.4197 1184.42 74.9151 1180.88 73.5679C1176.18 71.7778 1175.47 67.7681 1176.73 63.4807C1176.88 62.9963 1176.52 62.526 1176.09 62.4104C1175.97 62.2816 1175.8 62.2026 1175.59 62.1962C1172.68 62.182 1169.63 62.0583 1167.52 59.7472C1165.6 57.6483 1165.59 54.6057 1167.49 52.5006C1171.38 48.1756 1176.98 50.8289 1180.62 53.9577C1181.17 54.4306 1181.73 53.563 1181.39 53.0699C1181.31 52.9561 1181.22 52.85 1181.13 52.7439C1180.87 47.3264 1183.72 42.7217 1189.48 42.1714C1196.28 41.5316 1200.49 46.6107 1199.1 53.0618C1199.03 53.4163 1199.21 53.7314 1199.48 53.8936C1199.65 54.2278 1200.1 54.4385 1200.41 54.0978C1204.2 50.2038 1210.25 52.1081 1212.55 56.7372ZM1209.08 51.2578C1208 50.7384 1206.85 50.425 1205.71 50.3438C1207 39.3768 1217.39 33.892 1227.67 37.0406C1236.32 39.692 1239.82 47.7417 1239.13 56.1576C1237.64 55.8232 1236.09 55.8586 1234.68 56.3501C1235.38 42.9455 1212.13 37.6458 1209.08 51.2578ZM1259.18 76.4258C1258.73 76.3027 1258.36 76.4609 1258.12 76.725C1257.67 76.2858 1256.89 76.9299 1257.15 77.5225C1259.13 81.8945 1253.4 83.4918 1250.34 82.378C1247.65 81.3954 1246.83 79.3398 1245.3 77.2197C1245.12 76.9579 1244.81 76.9178 1244.54 76.9955C1244.2 76.529 1243.43 76.3658 1242.96 76.9853C1240.88 79.7122 1237.18 80.7345 1234.49 78.1943C1233.23 77.0095 1232.62 75.4021 1232.83 73.6606C1233.03 72.0525 1234.46 69.3522 1236.36 69.3796C1237.03 69.3948 1237.23 68.5369 1236.72 68.2161C1236.69 68.003 1236.56 67.7981 1236.33 67.6204C1233.85 65.757 1230.67 62.6255 1233.42 59.4836C1235.85 56.6939 1239.4 57.7783 1242.33 59.0528C1242.33 59.0528 1242.32 59.0643 1242.33 59.068C1242.53 59.4744 1242.88 59.5523 1243.19 59.4364C1243.2 59.4401 1243.21 59.4438 1243.22 59.4476C1243.62 59.6281 1243.96 59.0817 1243.74 58.7669C1243.75 58.6945 1243.76 58.6335 1243.75 58.5573C1243.37 54.1497 1248.41 52.5791 1252.01 52.8331C1257.03 53.1819 1258.45 57.6484 1258.11 61.9344C1258.03 62.8717 1259.41 63.2714 1259.87 62.5986C1264.44 61.598 1269.23 64.888 1269.08 69.8317C1268.93 75.0153 1263.87 77.7056 1259.18 76.4258Z" fill="#BAD266" fill-opacity="0.8"/>
<path d="M103.483 812.155C102.911 811.605 101.98 811.96 101.661 812.581C95.7011 824.277 89.2497 836.2 85.3166 848.767C85.2758 848.902 85.2753 849.009 85.2993 849.128C85.1296 849.445 85.1998 849.866 85.475 850.126C85.2274 856.352 85.583 862.531 86.1485 868.728C86.4428 871.993 86.0617 878.844 87.8135 881.79C88.978 883.756 89.9435 883.77 92.0886 883.844C97.324 884.02 103.202 882.361 108.402 881.651C113.654 880.951 119.608 880.921 124.715 879.459C127.161 878.758 127.493 878.327 128.117 875.974C130.548 866.791 128.595 854.843 127.129 845.704C127.07 845.321 126.864 845.073 126.609 844.905C126.817 844.62 126.886 844.268 126.694 843.889C120.691 832.154 112.963 821.368 103.483 812.155ZM103.373 879.904C103.085 876.756 104.249 871.973 106.907 870.501C112.037 867.657 113.092 874.888 113.859 878.606C111.566 878.88 109.279 879.12 107.007 879.424C105.809 879.574 104.591 879.739 103.373 879.904ZM126.239 867.324C126.229 867.953 126.389 874.497 125.715 875.581C124.769 877.115 121.442 877.363 119.833 877.683C118.464 877.955 117.061 878.159 115.662 878.346C115.383 873.903 112.95 865.904 107.094 868.109C103.203 869.575 100.782 875.945 101.82 880.109C99.6744 880.399 97.512 880.687 95.3668 880.977C89.7865 881.728 89.7344 879.384 89.1122 874.349C88.1153 866.365 87.7458 858.346 87.0742 850.328C99.7394 850.309 112.474 848.952 125.025 847.315C125.95 853.955 126.408 860.622 126.239 867.324ZM124.509 844.981C111.998 846.438 99.4396 847.337 86.91 848.64C92.6668 837.663 97.3294 826.127 103.016 815.094C111.534 824.169 118.687 833.952 124.509 844.981Z" fill="#FACA4E" fill-opacity="0.8"/>
<path d="M101.049 855.843C99.5371 855.7 97.8843 856.279 96.4322 856.67C95.0652 857.031 92.7576 857.285 91.7658 858.411C91.0472 859.239 91.2305 860.504 91.245 861.51C91.2896 863.587 91.377 865.724 91.9759 867.726C92.1845 868.428 92.9459 868.389 93.3462 867.969C93.3634 867.972 93.3706 867.983 93.3807 867.975C95.3684 867.827 100.731 867.776 101.831 865.708C102.395 864.642 102.097 862.85 102.096 861.714C102.092 860.079 102.369 858.093 101.865 856.524C101.752 856.194 101.407 855.877 101.049 855.843ZM93.3596 860.256C93.7588 859.427 94.5324 859.213 95.4196 859.009C95.2514 859.993 95.3648 861.096 95.4138 862.107C94.6041 862.377 93.8128 862.695 93.0459 863.026C92.9653 861.991 92.9925 861.001 93.3596 860.256ZM93.5455 866.752C93.4754 865.967 93.3051 865.041 93.1694 864.121C93.9358 863.897 94.6964 863.707 95.467 863.511C95.4904 864.465 95.5108 865.436 95.7357 866.353C94.9163 866.524 94.133 866.639 93.5455 866.752ZM100.026 860.996C100.041 861.895 100.323 863.257 100.096 864.115C99.8099 865.168 98.298 865.753 96.6949 866.145C96.8845 865.191 96.883 864.161 96.8828 863.175C97.7153 862.98 98.555 862.795 99.4047 862.603C100.326 862.406 100.248 860.945 99.2699 861.106C98.4838 861.238 97.6959 861.432 96.9223 861.646C96.9697 860.642 97.033 859.596 96.7866 858.648C97.7879 858.349 98.9621 857.972 100.021 857.905C100.135 858.901 100.007 860.069 100.026 860.996Z" fill="#FACA4E" fill-opacity="0.8"/>
<path d="M122.247 855.303C120.464 855.14 118.683 854.96 116.9 854.797C116.07 854.717 114.706 854.333 113.951 854.959C113.32 855.481 113.422 856.44 113.405 857.165C113.326 859.132 113.237 861.105 113.272 863.083C113.278 863.412 113.533 863.58 113.795 863.607C113.888 863.845 114.068 864.036 114.365 864.068C115.819 864.237 117.295 864.223 118.743 864.062C119.767 863.944 121.531 863.908 122.342 863.213C122.852 862.776 122.862 862.405 122.944 861.77C123.178 859.937 122.949 857.9 122.952 856.062C122.949 855.716 122.595 855.344 122.247 855.303ZM114.918 858.081C114.94 857.792 114.96 857.52 114.983 857.231C114.754 856.543 114.911 856.25 115.45 856.369C115.949 856.153 116.888 856.322 117.671 856.465C117.618 857.246 117.596 858.05 117.594 858.84C116.664 858.983 115.73 859.143 114.812 859.323C114.855 858.914 114.891 858.494 114.918 858.081ZM114.529 862.481C114.606 861.774 114.665 861.065 114.731 860.366C115.695 860.336 116.655 860.278 117.628 860.196C117.66 860.947 117.701 861.691 117.797 862.427C116.704 862.488 115.629 862.491 114.529 862.481ZM121.256 861.1C121.381 861.983 120.965 862.338 119.981 862.17C119.561 862.24 119.133 862.3 118.726 862.346C118.784 861.592 118.824 860.835 118.872 860.089C119.664 860.029 120.458 859.951 121.25 859.891L121.26 859.884C121.261 860.293 121.255 860.691 121.256 861.1ZM121.268 858.332C121.216 858.323 121.164 858.314 121.11 858.322C120.398 858.432 119.687 858.541 118.969 858.64C119.009 857.99 119.059 857.332 119.099 856.682C119.823 856.762 120.549 856.824 121.265 856.893C121.272 857.373 121.271 857.844 121.268 858.332Z" fill="#FACA4E" fill-opacity="0.8"/>
<path d="M1318.93 894.769C1323.89 888.549 1323.23 879.189 1316.33 874.469C1309.01 869.459 1300.21 874.749 1295.78 881.209C1291.48 868.499 1266.46 879.319 1273.94 891.379C1268.49 890.629 1262.93 894.709 1262.43 900.439C1261.86 906.949 1267.79 910.079 1273.39 909.259C1272.71 912.649 1274.24 916.669 1277.37 918.189C1280.06 919.499 1283.95 918.759 1285.54 916.169C1289.07 929.379 1311.72 923.169 1310.61 912.399C1316.09 916.309 1324.41 914.579 1327.19 907.999C1329.78 901.859 1325.38 894.859 1318.93 894.769ZM1325.12 907.999C1321.82 913.989 1314.75 913.439 1310.07 909.569C1309.19 908.849 1308.03 909.959 1308.81 910.829C1308.82 910.839 1308.83 910.849 1308.84 910.859C1309.27 916.659 1303.66 920.999 1298.33 921.739C1292.92 922.489 1288.54 919.419 1286.94 914.269C1286.62 913.229 1285.29 913.589 1285.24 914.529C1285.18 914.569 1285.12 914.609 1285.07 914.679C1283.44 916.979 1280.36 917.939 1277.83 916.399C1275.05 914.709 1274.97 911.579 1275.46 908.769C1275.65 908.699 1275.85 908.649 1276.04 908.579C1276.79 908.279 1276.8 906.879 1275.83 907.009C1275.63 907.039 1275.42 907.059 1275.22 907.079C1274.9 906.859 1274.47 906.849 1274.18 907.189C1269.52 907.609 1263.94 907.139 1264.26 900.889C1264.55 895.259 1270.08 892.569 1275.1 892.989C1275.14 893.029 1275.17 893.079 1275.21 893.119C1275.53 893.479 1276 893.329 1276.23 893.009C1276.63 892.809 1276.68 892.199 1276.15 891.989C1276.13 891.979 1276.12 891.979 1276.1 891.969C1269.91 880.379 1289.7 871.169 1294.61 883.679C1295.02 884.719 1296.42 884.309 1296.26 883.219C1296.25 883.139 1296.23 883.069 1296.21 882.999C1300.13 877.919 1307.52 871.909 1314.22 875.519C1321.25 879.299 1321.65 888.339 1317.07 894.159C1316.84 894.459 1316.82 894.789 1316.92 895.079C1316.6 895.409 1316.8 896.139 1317.36 896.129C1323.58 896.019 1328.34 902.159 1325.12 907.999Z" fill="#FACA4E" fill-opacity="0.8"/>
<path d="M30.8162 173.68C31.2062 173.17 30.6862 172.31 30.0662 172.37C26.8762 172.65 23.6362 172.83 20.4762 173.33C20.4762 173.19 20.4562 173.05 20.3662 172.9C18.5162 169.73 16.2862 166.84 13.7062 164.23C13.3062 163.82 12.4562 163.97 12.3362 164.59C11.7562 167.76 11.0962 171 10.8462 174.22C7.6662 174.25 4.4662 174.77 1.2862 174.96C0.526204 175.01 0.136201 175.88 0.666201 176.45C2.7962 178.74 5.7762 181.41 8.8862 182.18C8.9362 182.19 8.9762 182.19 9.0262 182.19C8.1962 185.34 8.2762 188.84 8.3062 192.05C8.3162 192.81 9.2062 193.13 9.7462 192.65C12.4062 190.26 14.7662 187.61 16.8762 184.73C19.7162 187.12 23.0262 188.97 26.3262 190.63C26.9762 190.96 27.8662 190.41 27.6262 189.63C26.7362 186.78 26.1562 183.91 25.4762 181.01C25.4562 180.91 25.4062 180.83 25.3562 180.75C25.4162 180.7 25.4862 180.66 25.5362 180.59C27.2962 178.29 29.0662 175.99 30.8162 173.68ZM17.3362 183.52C17.1462 183.41 16.9462 183.43 16.7762 183.52C16.4062 183.29 15.8662 183.27 15.5362 183.72C13.8762 186 12.0262 188.1 10.0162 190.07C10.1062 187.28 10.3762 184.48 10.2062 181.72C10.1862 181.42 9.96621 181.25 9.72621 181.22C9.67621 181.08 9.58621 180.95 9.44621 180.84C8.22621 179.96 6.81621 179.37 5.58621 178.49C4.76621 177.91 4.0162 177.25 3.2862 176.57C5.9562 176.39 8.7062 176.15 11.2462 175.44C11.4762 175.38 11.6062 175.21 11.6562 175.03C11.7162 174.98 11.7662 174.91 11.7862 174.83C12.6062 172.15 13.1162 169.34 13.6262 166.56C15.6362 168.77 17.4062 171.15 18.9162 173.74C19.0462 173.97 19.2362 174.08 19.4362 174.12C19.4862 174.44 19.7262 174.75 20.0962 174.75C22.7862 174.76 25.4862 174.51 28.1762 174.27C26.7962 176.09 25.4162 177.9 24.0362 179.72C23.7762 180.06 23.8362 180.39 24.0462 180.62C23.8762 180.76 23.7762 180.96 23.8062 181.23C24.0762 183.55 24.6362 185.86 25.3062 188.11C22.6062 186.67 20.0062 185.05 17.3362 183.52Z" fill="#FACA4E" fill-opacity="0.8"/>
<path d="M847.98 533.659C845.55 525.259 836.1 526.309 831.31 531.479C830.11 523.949 820.38 520.359 815.06 527.379C806.58 538.579 818.07 547.089 827.19 552.019C827.21 552.609 827.69 553.189 828.45 552.989C835.74 551.099 850.79 543.379 847.98 533.659ZM842.96 542.099C838.96 546.419 833.76 549.079 828.25 550.879C828.2 550.829 828.17 550.769 828.1 550.719C823.64 547.459 815.87 543.759 814.34 538.059C813.23 533.919 815.49 528.609 819.03 526.499C824.42 523.279 830.53 528.109 829.47 534.169C829.29 535.169 830.66 535.919 831.21 534.909C833.09 531.439 836.85 528.349 841.12 529.509C847.62 531.279 846.53 538.249 842.96 542.099Z" fill="#BAD266" fill-opacity="0.8"/>
<path d="M520.364 159.341C517.934 150.941 508.484 151.991 503.694 157.161C502.494 149.631 492.764 146.041 487.444 153.061C478.964 164.261 490.454 172.771 499.574 177.701C499.594 178.291 500.074 178.871 500.834 178.671C508.124 176.781 523.174 169.061 520.364 159.341ZM515.344 167.781C511.344 172.101 506.144 174.761 500.634 176.561C500.584 176.511 500.554 176.451 500.484 176.401C496.024 173.141 488.254 169.441 486.724 163.741C485.614 159.601 487.874 154.291 491.414 152.181C496.804 148.961 502.914 153.791 501.854 159.851C501.674 160.851 503.044 161.601 503.594 160.591C505.474 157.121 509.234 154.031 513.504 155.191C520.004 156.961 518.914 163.931 515.344 167.781Z" fill="#FACA4E" fill-opacity="0.8"/>
</svg>
